<svg width="256" height="256" viewBox="0 0 256 256" fill="none" xmlns="http://www.w3.org/2000/svg">
<circle cx="128" cy="128" r="128" fill="#F3F3F3"/>
<path d="M83.1057 123.73C83.8394 122.996 84.6086 122.321 85.4132 121.706C86.2416 121.067 87.1054 120.535 88.0047 120.109C88.9277 119.659 89.9099 119.316 90.9512 119.079C91.9926 118.819 93.1286 118.689 94.3592 118.689C96.3472 118.689 98.1104 119.032 99.6487 119.718C101.187 120.381 102.465 121.327 103.483 122.558C104.524 123.765 105.305 125.221 105.826 126.925C106.37 128.605 106.642 130.463 106.642 132.498V155.68H97.8737V132.498C97.8737 130.273 97.3649 128.558 96.3472 127.351C95.3296 126.12 93.7794 125.505 91.6967 125.505C90.1821 125.505 88.7621 125.848 87.4367 126.534C86.1114 127.22 84.8571 128.155 83.6737 129.339V155.68H74.9052V119.257H80.2657C81.4017 119.257 82.1472 119.789 82.5022 120.854L83.1057 123.73ZM123.75 146.237C124.744 147.444 125.821 148.296 126.98 148.793C128.164 149.29 129.442 149.538 130.814 149.538C132.14 149.538 133.335 149.29 134.4 148.793C135.465 148.296 136.364 147.538 137.098 146.521C137.855 145.503 138.435 144.225 138.837 142.687C139.24 141.125 139.441 139.29 139.441 137.184C139.441 135.054 139.263 133.255 138.908 131.788C138.577 130.297 138.092 129.09 137.453 128.167C136.814 127.244 136.033 126.57 135.11 126.144C134.211 125.718 133.181 125.505 132.021 125.505C130.199 125.505 128.649 125.895 127.371 126.676C126.093 127.433 124.886 128.51 123.75 129.907V146.237ZM123.288 124.227C124.779 122.546 126.472 121.185 128.365 120.144C130.258 119.103 132.483 118.582 135.039 118.582C137.027 118.582 138.837 118.996 140.47 119.825C142.127 120.653 143.547 121.86 144.73 123.446C145.937 125.008 146.86 126.948 147.499 129.268C148.162 131.563 148.493 134.202 148.493 137.184C148.493 139.906 148.127 142.426 147.393 144.746C146.659 147.065 145.606 149.077 144.233 150.781C142.884 152.485 141.24 153.822 139.299 154.792C137.382 155.739 135.228 156.212 132.838 156.212C130.803 156.212 129.063 155.904 127.619 155.289C126.176 154.65 124.886 153.774 123.75 152.662V167.572H114.981V119.257H120.342C121.478 119.257 122.223 119.789 122.578 120.854L123.288 124.227ZM156.009 155.68V119.718H159.808C160.707 119.718 161.263 120.156 161.476 121.032L161.938 124.724C163.263 123.091 164.754 121.753 166.411 120.712C168.068 119.671 169.985 119.15 172.162 119.15C174.576 119.15 176.528 119.825 178.019 121.174C179.534 122.523 180.623 124.345 181.285 126.641C181.806 125.339 182.469 124.215 183.273 123.268C184.102 122.321 185.025 121.54 186.042 120.925C187.06 120.31 188.137 119.86 189.273 119.576C190.433 119.292 191.604 119.15 192.787 119.15C194.681 119.15 196.361 119.458 197.828 120.073C199.319 120.665 200.574 121.54 201.591 122.7C202.633 123.86 203.426 125.292 203.97 126.996C204.514 128.676 204.786 130.605 204.786 132.782V155.68H198.432V132.782C198.432 129.966 197.817 127.836 196.586 126.392C195.355 124.925 193.58 124.191 191.261 124.191C190.22 124.191 189.226 124.38 188.279 124.759C187.356 125.114 186.539 125.647 185.829 126.357C185.119 127.067 184.551 127.966 184.125 129.055C183.723 130.12 183.522 131.362 183.522 132.782V155.68H177.167V132.782C177.167 129.895 176.588 127.741 175.428 126.321C174.268 124.901 172.576 124.191 170.351 124.191C168.789 124.191 167.346 124.617 166.02 125.469C164.695 126.297 163.476 127.433 162.364 128.877V155.68H156.009Z" fill="#181818"/>
<rect x="45" y="87.8107" width="10.6559" height="87.3786" fill="#EE4FC2"/>
</svg>
